<svg width="82" height="85" viewBox="0 0 82 85" fill="none" xmlns="http://www.w3.org/2000/svg">
<rect x="56.7913" y="21.8555" width="14.5559" height="61.555" rx="7.27793" fill="#9F9F9F"/>
<rect x="56.7913" y="21.8555" width="14.5559" height="61.555" rx="7.27793" fill="#B36862"/>
<rect width="14.1565" height="23.0047" rx="7.07825" transform="matrix(0.964745 -0.263186 0.445885 0.895091 33.8696 29.379)" fill="#B36862"/>
<rect width="14.0104" height="56.2025" rx="7.00521" transform="matrix(0.950738 0.309994 -0.511577 0.859237 32.5068 31.4603)" fill="#B36862"/>
<rect x="5.22327" y="4.83556" width="14.5559" height="77.9889" rx="7.27793" fill="#B36862"/>
<rect x="71.1035" y="4.83556" width="12.0787" height="46.7378" rx="6.03934" transform="rotate(90 71.1035 4.83556)" fill="#B36862"/>
<rect x="0.753128" y="1.66906" width="15.3384" height="80.1252" rx="7.66922" fill="#55585D"/>
<rect width="13.9971" height="65.6504" rx="6.99857" transform="matrix(0.949433 0.313971 -0.516918 0.856035 34.689 22.8167)" fill="#55585D"/>
<rect width="14.708" height="61.4167" rx="7.35398" transform="matrix(0.965849 -0.259105 0.439914 0.89804 28.879 27.4417)" fill="#55585D"/>
<rect x="53.5024" y="20.2393" width="14.5559" height="61.555" rx="7.27793" fill="#55585D"/>
<rect x="68.0582" y="0.682167" width="13.012" height="46.7378" rx="6.50599" transform="rotate(90 68.0582 0.682167)" fill="#55585D"/>
<rect x="77.1971" y="68.579" width="2.51806" height="43.5778" rx="1.25903" transform="rotate(-180 77.1971 68.579)" fill="#57575F"/>
<rect x="81.0892" y="81.2259" width="2.51806" height="43.5778" rx="1.25903" transform="rotate(-180 81.0892 81.2259)" fill="#57575F"/>
<path d="M81.1888 35.5247C81.1888 36.275 80.5805 36.8833 79.8302 36.8833C79.0798 36.8833 78.4715 36.275 78.4715 35.5247C78.4715 34.7743 79.0798 34.1661 79.8302 34.1661C80.5805 34.1661 81.1888 34.7743 81.1888 35.5247Z" fill="#E2D7B7"/>
<path d="M77.2967 71.002C77.2967 71.7524 76.6884 72.3607 75.9381 72.3607C75.1877 72.3607 74.5795 71.7524 74.5795 71.002C74.5795 70.2517 75.1877 69.6434 75.9381 69.6434C76.6884 69.6434 77.2967 70.2517 77.2967 71.002Z" fill="#E2D7B7"/>
</svg>
